<?xml version="1.0" encoding="UTF-8" standalone="no"?>
<!DOCTYPE svg PUBLIC "-//W3C//DTD SVG 1.1//EN" "http://www.w3.org/Graphics/SVG/1.1/DTD/svg11.dtd">
<svg fill="#f5ebe8" width="100%" height="100%" viewBox="0 0 352 57" version="1.1" xmlns="http://www.w3.org/2000/svg" xmlns:xlink="http://www.w3.org/1999/xlink" xml:space="preserve" xmlns:serif="http://www.serif.com/" style="fill-rule:evenodd;clip-rule:evenodd;stroke-linejoin:round;stroke-miterlimit:2;">
    <g transform="matrix(1,0,0,1,-111.35,-231.870084)">
        <g transform="matrix(0.727941,0,0,0.25,26.198529,148.794258)">
            <path d="M160.455,377.6C165.034,377.6 168.537,380.133 170.964,385.2C173.391,390.267 174.604,399.2 174.604,412C174.604,417.6 174.432,422.367 174.089,426.3C173.745,430.233 173.127,433.333 172.234,435.6C171.341,437.867 170.517,439.4 169.762,440.2C169.006,441 167.941,441.933 166.568,443C170.277,444.733 172.841,447.467 174.261,451.2C175.68,454.933 176.39,462.067 176.39,472.6C176.39,487.4 175.165,497.5 172.715,502.9C170.265,508.3 166.407,511 161.141,511L116.976,511L116.976,377.6L160.455,377.6ZM160.523,418C160.523,413.467 160.077,410.467 159.184,409C158.291,407.533 156.974,406.8 155.234,406.8L130.919,406.8L130.919,430L154.96,430C156.791,430 158.176,429.267 159.115,427.8C160.054,426.333 160.523,423.067 160.523,418ZM162.378,467.8C162.378,464.2 161.977,461.4 161.176,459.4C160.374,457.4 158.806,456.4 156.471,456.4L130.919,456.4L130.919,480.8L156.265,480.8C157.867,480.8 159.287,480.3 160.523,479.3C161.76,478.3 162.378,474.467 162.378,467.8Z" style="fill-rule:nonzero;"/>
        </g>
        <g transform="matrix(0.727941,0,0,0.25,25.198529,148.794258)">
            <path d="M238.483,377.6L238.483,408L201.323,408L201.323,430.8L236.01,430.8L236.01,457.2L201.323,457.2L201.323,480.8L238.483,480.8L238.483,511L187.38,511L187.38,377.6L238.483,377.6Z" style="fill-rule:nonzero;"/>
        </g>
        <g transform="matrix(0.727941,0,0,0.25,25.198529,148.794258)">
            <path d="M260.669,511L245.145,511L270.697,377.6L289.517,377.6L314.519,511L299.133,511L294.806,486.8L265.202,486.8L260.669,511ZM270.079,459.2L289.723,459.2L279.901,406.4L270.079,459.2Z" style="fill-rule:nonzero;"/>
        </g>
        <g transform="matrix(0.727941,0,0,0.25,24.198529,148.794258)">
            <path d="M365.416,377.6C370.911,377.6 374.838,380.7 377.196,386.9C379.554,393.1 380.733,404.067 380.733,419.8C380.733,425.8 380.619,430.933 380.39,435.2C380.161,439.467 379.703,443.167 379.016,446.3C378.329,449.433 377.528,451.767 376.612,453.3C375.696,454.833 373.773,457 370.842,459.8C374.048,461 376.406,463.367 377.917,466.9C379.428,470.433 380.184,476.6 380.184,485.4L380.184,511L366.034,511L366.034,498.2C366.034,491.667 365.84,486.467 365.451,482.6C365.061,478.733 363.241,476.8 359.99,476.8L336.705,476.8L336.705,511L322.762,511L322.762,377.6L365.416,377.6ZM359.578,444.4C362.737,444.4 364.706,443.267 365.485,441C366.263,438.733 366.653,433.667 366.653,425.8C366.653,421.4 366.504,418.133 366.206,416C365.908,413.867 365.29,412.4 364.352,411.6C363.413,410.8 362.646,410.333 362.051,410.2C361.455,410.067 360.745,410 359.921,410L336.705,410L336.705,444.4L359.578,444.4Z" style="fill-rule:nonzero;"/>
        </g>
        <g transform="matrix(0.727941,0,0,0.25,23.198529,148.794258)">
            <path d="M442.485,471.512C440.067,475.704 436.403,477.8 431.493,477.8L406.147,477.8L406.147,511L392.204,511L392.204,377.6L429.295,377.6C436.209,377.6 441.006,380.867 443.685,387.4C445.971,392.975 447.281,403.357 447.617,418.546C447.108,418.871 446.59,419.499 446.079,420.44C444.88,422.651 443.645,426.932 442.724,431.154C441.784,435.464 441.179,439.688 441.07,441.279C440.252,453.281 441.003,463.675 442.485,471.512ZM433.622,428.2C433.622,420.733 433.073,415.833 431.974,413.5C430.875,411.167 428.952,410 426.204,410L406.147,410L406.147,445.4L426.41,445.4C429.066,445.4 430.932,444.3 432.008,442.1C433.084,439.9 433.622,435.267 433.622,428.2Z"/>
        </g>
        <g transform="matrix(0.727941,0,0,0.25,17.198529,148.794258)">
            <path d="M518.94,377.6L530.677,377.6L544.071,478.8L556.091,377.6L572.919,377.6L584.321,478.8L598.127,377.6L612.345,377.6L593.457,511L574.499,511L564.333,416.4L553.756,511L535.004,511L530.4,478.007C530.623,477.198 530.836,476.347 531.039,475.456C534.548,460.069 534.9,433.143 528.29,419.866C526.501,416.273 524.489,417.337 522.643,422.413L520.691,408.427C520.729,407.522 520.759,406.61 520.782,405.694C521.023,395.922 520.351,385.84 518.94,377.6Z"/>
        </g>
        <g transform="matrix(0.41026,0,0,0.41026,328.527184,220.682192)">
            <path d="M90.522,158.384C83.663,156.964 64.775,150.357 62.448,139.513C59.569,126.1 76.494,120.563 77.305,120.134C91.102,112.846 90.674,81.708 116.527,85.348C119.333,85.743 127.342,86.871 140.31,111.597C145.646,121.773 155.225,121.477 160.283,127.685C176.95,148.149 131.853,167.856 90.522,158.384Z"/>
            <path d="M89.726,162.108L89.71,162.105C85.294,161.184 76.293,158.277 69.254,153.604C63.959,150.09 59.844,145.531 58.724,140.312C57.258,133.481 59.77,128.238 63.446,124.39C68.18,119.435 74.994,117.048 75.526,116.767C78.395,115.251 80.425,112.404 82.342,109.171C84.644,105.287 86.69,100.828 89.112,96.712C94.706,87.206 102.147,79.477 117.058,81.577C120.133,82.01 129.471,82.729 143.683,109.828C146.432,115.071 150.592,116.963 154.339,118.88C157.732,120.616 160.876,122.383 163.236,125.28C166.632,129.45 167.896,133.638 167.606,137.61C167.194,143.276 163.458,148.747 156.989,153.197C143.013,162.81 115.677,168.04 89.726,162.108ZM91.373,154.672C115.002,160.087 139.946,155.675 152.672,146.922C156.889,144.021 159.74,140.75 160.009,137.057C160.174,134.79 159.267,132.47 157.33,130.091C155.119,127.377 151.835,126.214 148.606,124.488C144.316,122.195 140.036,119.274 136.937,113.366C125.208,91.001 118.534,89.477 115.996,89.119C102.556,87.227 97.625,96.629 92.999,105.46C89.052,112.996 85.204,120.269 79.084,123.502C78.706,123.702 74.547,125.048 70.842,127.952C67.886,130.27 65.1,133.723 66.171,138.714C66.914,142.171 69.958,144.929 73.466,147.258C79.607,151.334 87.466,153.862 91.294,154.654L91.373,154.672Z" style="fill:none;"/>
            <path d="M98.169,51.461C99.608,42.07 103.828,39.226 110.672,31.667C113.919,28.081 124.45,41.797 125.73,45.416C136.123,74.812 96.979,82.589 98.169,51.461Z"/>
            <path d="M94.404,50.884C95.978,40.619 100.368,37.373 107.849,29.111L108.797,28.272L109.929,27.662L111.124,27.337L112.265,27.27C113.691,27.322 115.474,27.962 117.312,29.261C122.191,32.707 128.302,41.265 129.321,44.146C135.585,61.866 126.226,72.781 116.173,74.864C110.817,75.974 105.096,74.634 100.805,70.537C96.857,66.767 94.012,60.514 94.363,51.315C94.369,51.171 94.383,51.027 94.404,50.884ZM112.511,35.294C106.91,41.306 103.235,43.931 101.967,51.823L101.967,51.833C101.77,58.079 103.365,62.45 106.065,65.028C108.454,67.308 111.646,68.023 114.628,67.406C121.258,66.032 126.271,58.373 122.139,46.685C121.47,44.792 117.802,39.8 114.438,36.727C113.87,36.209 113.075,35.661 112.511,35.294Z" style="fill:none;"/>
            <path d="M145.501,90.422C120.395,88.692 144.02,45.165 151.36,48.803C165.464,55.794 165.954,89.052 145.501,90.422Z"/>
            <path d="M145.24,94.222C140.32,93.883 136.887,92.184 134.545,89.78C132.163,87.335 130.857,84.077 130.515,80.329C129.943,74.073 132.177,66.283 135.492,59.675C138.663,53.357 142.837,48.177 146.118,46.141C147.464,45.305 148.758,44.888 149.901,44.798L151.466,44.87L153.052,45.39C161.294,49.476 165.973,61.052 165.188,71.993C164.381,83.254 158.06,93.398 145.756,94.222C145.584,94.234 145.412,94.234 145.24,94.222ZM150.308,52.562C149.85,52.872 148.911,53.54 148.264,54.212C146.231,56.32 144.101,59.503 142.3,63.091C139.636,68.4 137.641,74.609 138.1,79.635C138.273,81.529 138.798,83.23 140.002,84.465C141.203,85.698 143.019,86.394 145.495,86.602L145.515,86.602C153.479,85.918 157.061,78.826 157.591,71.448C158.128,63.954 155.722,55.754 150.308,52.562Z" style="fill:none;"/>
            <path d="M78.516,90.364C77.247,90.082 68.91,88.229 66.397,79.539C61.839,63.779 64.12,59.195 72.853,49.919C80.849,41.425 107.54,90.336 78.516,90.364Z"/>
            <path d="M77.69,94.082C76.117,93.732 65.852,91.364 62.738,80.597C60.197,71.81 59.733,66.122 60.951,61.355C62.182,56.533 65.155,52.539 70.08,47.309L71.738,45.996L73.733,45.252C74.929,45.014 76.232,45.09 77.6,45.54C80.178,46.387 83.287,48.891 86.114,52.592C90.92,58.882 95.181,68.623 95.512,76.773C95.705,81.529 94.58,85.784 91.935,88.895C89.284,92.013 85.04,94.166 78.52,94.173C78.241,94.173 77.962,94.143 77.69,94.082ZM75.32,52.855C71.681,56.735 69.258,59.611 68.331,63.24C67.364,67.024 68.039,71.507 70.055,78.481C71.784,84.458 77.186,86.126 78.922,86.55L78.939,86.551C82.437,86.482 84.831,85.587 86.237,83.834C87.732,81.97 88.062,79.363 87.872,76.543C87.558,71.898 85.702,66.713 83.31,62.29C81.369,58.702 79.084,55.604 76.888,53.81C76.42,53.427 75.693,53.042 75.32,52.855Z" style="fill:none;"/>
            <path d="M64.2,108.482C61.581,127.915 37.794,116.168 42.112,94.419C42.55,92.214 49.358,79.911 53.518,84.482C64.586,96.641 63.762,99.58 64.2,108.482Z"/>
            <path d="M67.975,108.991C66.981,116.36 63.36,120.163 59.337,121.541C53.496,123.54 45.663,120.266 41.198,112.646C38.365,107.812 36.869,101.273 38.377,93.677C38.569,92.707 39.643,90.134 41.312,87.507C42.946,84.934 45.137,82.326 47.265,80.978C48.713,80.061 50.196,79.632 51.59,79.666L52.916,79.838L54.207,80.302L55.362,81.019L56.335,81.918C62.369,88.548 65.078,92.723 66.422,96.395C67.784,100.116 67.762,103.376 68.004,108.295C68.016,108.528 68.006,108.761 67.975,108.991ZM51.222,87.62C50.514,88.271 49.018,89.699 48.259,90.806C47.007,92.633 45.982,94.485 45.848,95.16C44.09,104.017 47.752,110.947 52.422,113.575C54.08,114.507 55.843,114.896 57.305,114.149C58.926,113.322 59.92,111.342 60.379,108.309C60.209,104.523 60.338,101.934 59.269,99.012C58.187,96.057 55.903,92.812 51.222,87.62Z" style="fill:none;"/>
            <path d="M162.297,100.454C162.93,98.827 170.381,79.649 176.347,83.764C192.85,95.147 179.69,126.133 165.568,116.405C159.605,112.297 162.101,102.145 162.297,100.454Z"/>
            <path d="M158.747,99.075C159.229,97.835 163.436,87.283 168.091,82.57C171.475,79.145 175.205,78.35 178.509,80.629C190.238,88.719 189.614,105.127 183.388,114.503C180.621,118.671 176.793,121.415 172.662,121.969C169.729,122.363 166.574,121.723 163.407,119.541C160.093,117.258 158.522,113.707 158.012,110.025C157.403,105.63 158.384,101.136 158.514,100.014C158.552,99.692 158.63,99.377 158.747,99.075ZM174.509,87.129C174.24,87.314 173.79,87.64 173.51,87.923C172.478,88.968 171.497,90.399 170.589,91.914C168.311,95.713 166.545,100.06 165.99,101.47L165.988,101.479C165.784,102.644 165.356,104.932 165.43,107.41C165.492,109.523 165.798,111.939 167.729,113.269C171.366,115.774 174.786,113.688 177.043,110.29C181.271,103.922 182.234,92.778 174.509,87.129Z" style="fill:none;"/>
        </g>
    </g>
</svg>
