<?xml version="1.0" encoding="UTF-8" standalone="no"?><!DOCTYPE svg PUBLIC "-//W3C//DTD SVG 1.1//EN" "http://www.w3.org/Graphics/SVG/1.1/DTD/svg11.dtd"><svg width="100%" height="100%" viewBox="0 0 268 235" version="1.1" xmlns="http://www.w3.org/2000/svg" xmlns:xlink="http://www.w3.org/1999/xlink" xml:space="preserve" xmlns:serif="http://www.serif.com/" style="fill-rule:evenodd;clip-rule:evenodd;stroke-linejoin:round;stroke-miterlimit:2;"><g><path d="M230.192,2.44c-1.383,-1.514 -3.32,-2.393 -5.371,-2.425c-2.051,-0.049 -4.02,0.749 -5.452,2.214c-2.832,2.848 -2.93,7.405 -0.244,10.368c21.273,23.747 33.024,54.492 33.024,86.363c0,31.885 -11.751,62.629 -33.024,86.375c-2.686,2.962 -2.588,7.52 0.244,10.368c1.432,1.449 3.402,2.262 5.452,2.214c2.051,-0.033 3.988,-0.928 5.371,-2.441c23.795,-26.514 36.947,-60.888 36.947,-96.517c0,-35.629 -13.151,-69.988 -36.947,-96.517l0,-0.001Z" style="fill-rule:nonzero;"/><path d="M207.147,172.069c17.562,-20.313 27.213,-46.271 27.213,-73.129c0,-26.839 -9.652,-52.8 -27.213,-73.113c-1.27,-1.579 -3.109,-2.572 -5.127,-2.767c-2.018,-0.179 -4.02,0.439 -5.55,1.742c-1.546,1.302 -2.507,3.174 -2.653,5.192c-0.13,2.018 0.537,4.004 1.888,5.518c15.251,17.611 23.649,40.137 23.649,63.429c0,23.308 -8.398,45.833 -23.649,63.446c-1.351,1.514 -2.018,3.499 -1.888,5.517c0.146,2.002 1.107,3.874 2.653,5.176c1.53,1.318 3.532,1.937 5.55,1.742c2.018,-0.179 3.857,-1.188 5.127,-2.751l0,-0.002Z" style="fill-rule:nonzero;"/><path d="M173.243,149.657c1.514,1.514 3.597,2.311 5.729,2.181c2.148,-0.114 4.118,-1.139 5.453,-2.816c11.475,-14.16 17.741,-31.836 17.741,-50.083c0,-18.229 -6.266,-35.905 -17.741,-50.083c-1.335,-1.66 -3.304,-2.686 -5.436,-2.816c-2.132,-0.114 -4.232,0.667 -5.745,2.165c-2.686,2.734 -2.897,7.031 -0.488,10.01c9.326,11.507 14.42,25.863 14.42,40.674c0,14.811 -5.095,29.183 -14.42,40.69c-2.458,2.979 -2.246,7.34 0.488,10.075l0,0.004Z" style="fill-rule:nonzero;"/><path d="M36.947,195.461c1.383,1.514 3.32,2.409 5.371,2.441c2.051,0.049 4.02,-0.765 5.469,-2.214c2.816,-2.848 2.913,-7.405 0.228,-10.368c-21.257,-23.747 -33.024,-54.492 -33.024,-86.375c0,-31.868 11.767,-62.612 33.024,-86.362c2.686,-2.962 2.588,-7.52 -0.228,-10.368c-1.449,-1.465 -3.418,-2.262 -5.469,-2.214c-2.051,0.033 -3.988,0.911 -5.371,2.425c-23.795,26.53 -36.947,60.888 -36.947,96.517c0,35.628 13.151,70.004 36.947,96.517l0,0.001Z" style="fill-rule:nonzero;"/><path d="M71.355,35.515c2.702,-3.158 2.311,-7.91 -0.846,-10.596c-3.174,-2.686 -7.91,-2.295 -10.596,0.863c-17.562,20.312 -27.213,46.271 -27.213,73.112c0,26.855 9.652,52.8 27.213,73.129c1.188,1.758 3.06,2.93 5.16,3.223c2.116,0.309 4.232,-0.309 5.876,-1.66c1.628,-1.367 2.604,-3.353 2.686,-5.485c0.081,-2.116 -0.749,-4.167 -2.279,-5.648c-15.251,-17.611 -23.649,-40.137 -23.649,-63.446c0,-23.291 8.398,-45.817 23.649,-63.429l-0,-0.063Z" style="fill-rule:nonzero;"/><path d="M93.817,48.228c-1.514,-1.497 -3.613,-2.279 -5.745,-2.165c-2.132,0.13 -4.102,1.156 -5.436,2.816c-11.475,14.176 -17.741,31.852 -17.741,50.083c0,18.245 6.266,35.921 17.741,50.096c1.335,1.66 3.304,2.686 5.452,2.816c2.132,0.114 4.215,-0.684 5.729,-2.197c2.686,-2.718 2.897,-7.031 0.488,-9.993c-9.326,-11.507 -14.42,-25.863 -14.42,-40.69c0,-14.811 5.095,-29.167 14.42,-40.674c2.458,-2.978 2.246,-7.357 -0.488,-10.091l-0,-0Z" style="fill-rule:nonzero;"/><path d="M132.863,234.865c1.888,0.195 3.776,-0.423 5.192,-1.693c1.416,-1.27 2.23,-3.076 2.262,-4.98l0,-109.992c0,-0.391 0.244,-0.732 0.619,-0.879c8.805,-3.548 13.851,-12.842 12.044,-22.152c-1.807,-9.326 -9.961,-16.048 -19.45,-16.048c-9.489,0 -17.643,6.722 -19.45,16.048c-1.807,9.31 3.239,18.603 12.044,22.152c0.374,0.146 0.619,0.488 0.619,0.879l0,109.621c-0.065,3.564 2.572,6.608 6.12,7.048l0,-0.004Z" style="fill-rule:nonzero;"/></g></svg>